<?xml version="1.0" encoding="UTF-8"?>
<!DOCTYPE svg PUBLIC "-//W3C//DTD SVG 1.1//EN" "http://www.w3.org/Graphics/SVG/1.1/DTD/svg11.dtd">
<!-- Creator: CorelDRAW -->
<svg xmlns="http://www.w3.org/2000/svg" xml:space="preserve" width="50.8mm" height="50.8mm" version="1.1" style="shape-rendering:geometricPrecision; text-rendering:geometricPrecision; image-rendering:optimizeQuality; fill-rule:evenodd; clip-rule:evenodd"
viewBox="0 0 5080 5080"
 xmlns:xlink="http://www.w3.org/1999/xlink"
 xmlns:xodm="http://www.corel.com/coreldraw/odm/2003">
 <defs>
  <style type="text/css">
   <![CDATA[
    .fil3 {fill:#A2C937}
    .fil2 {fill:#A3CA38}
    .fil4 {fill:#A3CB38}
    .fil1 {fill:#A5CC38}
    .fil0 {fill:#A5CD38}
   ]]>
  </style>
 </defs>
 <g id="Camada_x0020_1">
  <metadata id="CorelCorpID_0Corel-Layer"/>
  <g id="_1556323367088">
   <path class="fil0" d="M98.96 2884.83c0,-46.18 12.31,-94.68 16.42,-140.86 0,-11.55 0,-27.71 4.1,-39.26 8.21,-39.25 12.32,-124.69 20.53,-173.19l24.63 -205.52c12.32,-90.05 24.63,-196.28 36.95,-281.72 8.21,-62.35 8.21,-55.42 -16.42,-55.42 -16.42,0 -225.79,-2.31 -229.9,2.31 -4.1,4.62 -8.21,32.33 -8.21,36.95l-32.84 473.38c-4.1,25.41 -4.1,48.5 -4.1,71.59 -4.11,43.87 -12.32,108.53 -12.32,145.48 -4.11,80.82 -8.21,145.48 -16.42,223.99 0,23.09 0,48.49 -4.11,71.59l-8.21 143.17c0,-2.31 0,0 0,0 12.32,6.92 303.79,4.62 344.84,2.31 4.11,-9.24 12.32,-50.81 16.42,-64.66 12.32,-43.88 24.64,-85.44 41.06,-129.32 8.21,-20.78 12.31,-55.42 16.42,-69.27 20.52,-73.9 53.37,-189.36 73.89,-260.94 4.11,-2.31 0,2.31 0,2.31 4.11,-16.17 8.21,-30.02 12.32,-41.57l49.26 -281.72c4.11,-27.71 12.32,-57.73 12.32,-83.13l41.05 -242.47 -168.32 0c-8.21,20.78 -8.21,32.33 -16.42,55.42 -8.21,27.71 -16.42,87.75 -24.63,115.46 -8.21,34.64 -16.42,78.52 -24.63,113.15 -4.11,18.48 -8.21,32.33 -12.32,53.11 -8.21,39.26 -20.52,71.59 -28.73,110.85l-24.63 115.46c-4.11,20.78 -8.21,34.63 -12.32,57.73 -12.32,53.11 -28.74,115.46 -36.95,166.26l-28.73 108.53z"/>
   <path class="fil0" d="M4992.41 3159.63c24.63,0 20.52,0 20.52,-23.1l4.11 -113.15c0,-96.98 8.21,-200.9 8.21,-300.19 0,-27.71 4.11,-43.88 4.11,-69.28 0,-80.82 4.1,-150.1 8.21,-228.61 0,-25.4 -4.11,-53.11 0,-76.2l8.21 -297.89c4.1,-60.04 8.21,-62.35 -12.32,-62.35l-242.21 0c-20.53,0 -16.42,6.93 -20.53,27.71 0,18.48 0,32.33 0,48.5 -8.21,57.73 -12.31,129.31 -16.42,187.04 -8.21,76.2 -20.52,205.52 -24.63,284.03l-8.21 92.37c0,25.4 4.11,73.89 -8.21,92.37l-61.58 0c-4.1,11.54 -4.1,20.78 -8.21,32.33 -8.21,30.02 -57.47,207.82 -57.47,221.68 24.63,2.31 90.31,-6.93 106.74,2.31l0 11.55c0,41.56 -12.32,127 -12.32,170.88l312 0z"/>
   <path class="fil0" d="M616.22 3159.63c4.1,-13.86 4.1,-23.1 8.21,-39.26l12.31 -71.59c4.11,-11.54 4.11,-25.4 4.11,-36.94 4.1,-6.93 4.1,-27.71 8.21,-36.95 4.1,-11.55 4.1,-23.09 4.1,-36.95 8.21,-23.09 12.32,-46.18 12.32,-71.58l28.74 -143.17c8.21,-50.81 12.31,-101.61 20.52,-147.79 12.32,-48.49 16.42,-96.99 28.74,-145.48l24.63 -145.48c4.11,-25.4 8.21,-50.8 12.32,-73.9 4.1,-23.09 8.21,-50.8 12.31,-73.89l8.21 -73.89c4.11,-18.48 16.42,-53.12 12.32,-73.9l-299.68 0c0,16.17 -4.11,27.71 -4.11,39.26 -4.1,13.85 -8.21,20.78 -8.21,36.95 -4.1,23.09 -8.21,46.18 -12.32,71.58l-32.84 180.12c-8.21,60.04 -20.52,122.39 -28.73,182.42l-78 438.75c0,23.09 -4.11,53.11 -8.21,76.21 -4.11,23.09 -8.21,46.18 -12.32,71.58l-12.32 73.9 299.69 0z"/>
   <path class="fil0" d="M4167.25 3159.63l307.9 0 119.05 -415.66c4.1,-25.4 28.74,-96.99 41.05,-140.86 4.11,-11.55 8.21,-18.47 8.21,-30.02 4.11,-13.86 8.21,-25.4 12.32,-36.95l36.95 -138.55c8.21,-30.02 16.42,-39.26 16.42,-73.89 0,-57.73 8.21,-110.85 12.31,-168.58 0,-55.42 16.42,-106.22 12.32,-163.95l-180.63 -2.31c-12.32,25.4 -16.42,46.19 -24.63,73.9l-24.64 71.58c-12.31,32.33 -8.21,25.4 -16.42,53.11l-57.47 166.27c-24.63,69.27 -45.16,147.78 -69.79,219.37 -32.84,96.99 -65.68,193.97 -98.53,290.96l-24.63 71.58c-4.1,11.55 -4.1,25.4 -12.31,36.95l-45.16 147.79c-4.11,9.24 -12.32,25.4 -12.32,39.26z"/>
   <path class="fil0" d="M-241.78 3159.63c8.21,-32.33 49.26,-270.18 57.47,-325.6 12.32,-55.42 24.64,-108.53 28.74,-163.95 4.11,-23.1 8.21,-57.73 16.42,-80.83 12.32,-57.73 24.63,-196.28 28.74,-258.63 4.1,-71.58 16.42,-150.09 20.53,-219.37l4.1 -90.06c4.11,-23.09 8.21,-32.33 -4.1,-32.33l-192.95 0c-8.21,27.71 -28.74,166.26 -36.95,214.76 -4.1,16.16 0,27.71 -8.21,43.87l-28.74 170.88c0,13.86 -4.1,27.71 -4.1,43.88 -4.11,11.54 -4.11,27.71 -8.21,41.56 -12.32,55.42 -20.53,122.39 -28.74,168.57 -4.1,13.86 -4.1,30.02 -8.21,46.19l-20.52 127c-8.22,25.41 -12.32,60.04 -16.43,87.75l-32.84 214.76c-4.1,11.55 0,11.55 8.21,11.55 53.37,2.31 180.63,2.31 225.79,0z"/>
   <path class="fil0" d="M3658.2 2843.27c8.21,-27.71 12.32,-60.04 16.42,-87.75 4.11,-34.64 20.53,-136.25 28.74,-175.5 16.42,-94.68 36.95,-205.52 49.26,-297.89 0,-9.24 0,-18.47 4.11,-27.71 12.32,-41.57 12.32,-73.89 20.53,-115.46l24.63 -150.1 -254.53 0c-4.1,20.78 -4.1,41.57 -8.21,62.35 -4.1,16.16 -8.21,39.26 -12.31,55.42 -4.11,11.55 -4.11,23.09 -4.11,34.64 -4.1,9.24 -4.1,18.47 -8.21,27.71 -8.21,78.51 -28.74,159.33 -36.95,235.54 -8.21,53.11 -24.63,124.69 -32.84,177.81 -8.21,41.56 -12.31,78.51 -20.53,117.77 -4.1,41.56 -12.31,78.51 -16.42,120.07l-20.52 115.46 254.52 0 16.42 -92.36z"/>
   <path class="fil0" d="M1355.16 2935.63c8.21,-76.2 0,-166.26 8.21,-242.46 4.11,-36.95 0,-80.82 4.11,-120.08 0,-36.95 0,-78.51 4.1,-117.77 0,-39.26 0,-85.44 0,-122.39 4.11,-39.25 4.11,-80.82 4.11,-120.08 4.1,-39.25 4.1,-80.82 4.1,-120.07 0,-20.79 4.11,-39.26 4.11,-60.04 0,-43.88 4.1,-43.88 -16.42,-43.88l-176.53 0c-20.52,0 -16.42,2.31 -16.42,23.09l-8.21 113.15c-4.11,25.41 -4.11,55.43 -4.11,78.52 -4.1,23.09 -8.21,43.87 -8.21,71.58 0,20.79 0,57.73 -4.1,76.21l-16.42 226.3c-57.48,9.23 -45.16,-34.64 -78,101.6 -24.63,127.01 -49.26,103.92 53.37,103.92 8.21,23.09 -4.11,96.98 -8.21,129.31 0,23.09 -4.11,25.4 20.52,25.4 61.58,0 180.63,2.31 234,-2.31z"/>
   <path class="fil0" d="M3145.05 1991.17l-250.42 -2.31 -20.53 131.63c-8.21,46.18 -24.63,161.64 -32.84,196.28 -4.11,11.54 -4.11,23.09 -8.21,32.33 0,11.54 0,25.4 -4.11,34.63 -8.21,41.57 -12.31,85.45 -24.63,129.32 -12.31,73.89 -28.73,187.05 -41.05,263.25 -8.21,23.09 -16.42,50.8 -4.1,64.66 12.31,13.85 24.63,25.4 36.94,39.25 57.48,66.97 45.16,55.42 98.53,55.42 127.26,0 102.63,9.24 110.84,-39.25l24.63 -129.32c8.21,-34.64 -12.31,-32.33 -12.31,-57.73 -4.11,-11.54 28.73,-177.81 32.84,-198.59l16.42 -92.37c4.1,-13.85 4.1,-20.78 8.21,-34.64 4.1,-20.78 8.21,-43.87 8.21,-66.96 4.1,-32.33 24.63,-122.39 32.84,-163.96 4.11,-39.25 28.74,-136.24 28.74,-161.64z"/>
   <path class="fil0" d="M1782.11 2935.63c53.36,2.31 172.42,2.31 225.79,0 8.21,-55.42 0,-85.44 -12.32,-127 -12.32,-39.26 -20.53,-80.82 -32.84,-117.77 -4.11,-9.24 -4.11,-18.48 -8.21,-27.71l-65.69 -263.25c-4.1,-20.78 -8.21,-41.57 -16.42,-57.73 -4.1,-16.17 -8.21,-41.57 -12.31,-60.04 -4.11,-18.47 -12.32,-39.26 -16.42,-57.73l-28.74 -117.77c-4.11,-23.09 -8.21,-39.26 -16.42,-60.04 0,-6.93 -4.11,-18.47 -8.21,-25.4 -4.11,-11.55 0,-20.78 -8.21,-30.02 -32.85,-4.62 -168.32,-2.31 -213.48,-2.31 -4.1,9.24 -12.31,46.19 -12.31,60.04 0,9.24 36.95,143.17 45.16,177.81 4.1,20.78 8.21,36.95 12.31,57.73 16.42,66.97 82.11,320.98 94.42,353.31l61.58 240.15c0,11.55 8.21,48.5 12.32,57.73z"/>
   <path class="fil0" d="M2402 2584.64c0,-9.24 0,4.61 4.1,-13.86l32.85 -214.76c4.1,-25.4 12.31,-53.11 12.31,-78.51 16.42,-117.77 32.84,-69.27 41.05,-96.98 4.11,-16.17 16.43,-92.37 20.53,-115.46 4.11,-9.24 16.42,-69.28 12.32,-73.9 -8.21,-4.62 -20.53,-2.31 -28.74,-2.31l-94.42 0c-65.69,0 -45.16,-11.54 -90.32,36.95 -20.52,23.09 -36.94,41.56 -57.47,64.66 -16.42,13.85 -16.42,23.09 -20.53,43.87 -24.63,122.39 -45.15,251.7 -65.68,376.4 -4.11,41.57 -24.63,117.77 -28.74,159.34l-8.21 53.11c-20.52,127 -32.84,90.06 12.32,140.86l61.58 64.66c12.31,11.54 24.63,6.92 53.37,6.92 114.94,0 90.31,9.24 98.52,-25.4l28.74 -159.33c4.1,-20.79 -4.11,-9.24 -4.11,-27.71 0,-9.24 8.21,-71.59 12.32,-83.13l8.21 -55.42z"/>
   <path class="fil0" d="M3034.21 2935.63c24.63,2.31 114.94,0 151.89,0 28.74,0 20.53,4.62 36.95,-11.54 20.52,-18.48 32.84,-32.33 53.37,-48.5 12.31,-13.85 41.05,-36.94 45.15,-55.42l28.74 -170.88c4.11,-30.02 8.21,-62.35 12.32,-90.06l90.31 -512.64c4.11,-16.16 8.21,-27.71 8.21,-43.87 0,-13.86 0,-13.86 -12.31,-13.86 -28.74,-2.31 -213.48,-4.62 -221.69,2.31 -4.1,4.62 -4.1,2.31 -4.1,13.86l-20.53 103.91c-8.21,43.87 -12.31,78.51 -20.52,122.39l-32.85 180.12c0,13.85 -8.21,50.8 -8.21,62.34 -12.31,34.64 -36.94,193.98 -45.15,237.85 -4.11,18.47 -24.64,27.71 -32.85,41.57l-12.31 57.73c0,25.4 -16.42,113.15 -16.42,124.69z"/>
   <path class="fil1" d="M948.74 2935.63c4.11,-16.16 8.21,-39.25 12.32,-57.73 8.21,-16.16 16.42,-39.25 16.42,-55.42 4.1,-11.54 4.1,-20.78 8.21,-32.33l78 -279.41c4.1,-6.93 4.1,-18.47 8.21,-25.4l45.16 -173.19c4.1,-20.78 8.21,-34.64 8.21,-60.04 4.1,-20.78 4.1,-46.18 4.1,-66.97 4.11,-39.25 16.42,-175.5 16.42,-198.59l-143.68 0c-16.42,62.35 -32.84,120.08 -53.37,177.81l-53.37 177.81c-4.1,9.24 -4.1,23.09 -8.21,32.33 -4.1,9.23 -4.1,16.16 -8.21,27.71 -12.31,32.33 -12.31,43.87 -28.73,87.75 -4.11,6.93 -8.21,25.4 -8.21,32.33 -8.21,18.47 -12.32,39.25 -20.53,57.73 -8.21,23.09 -16.42,60.04 -24.63,90.06l-49.26 147.78c0,9.24 -32.85,110.85 -32.85,117.77l234 0z"/>
   <path class="fil0" d="M3855.26 2935.63c61.57,2.31 188.84,2.31 254.52,0 4.11,-11.54 4.11,-25.4 8.21,-39.25l20.53 -131.63c0,-25.4 8.21,-62.35 12.31,-87.75 4.11,-11.54 4.11,-32.33 8.21,-46.18l20.53 -127.01c8.21,-48.49 24.63,-131.62 28.74,-175.5 0,-18.47 12.31,-73.89 12.31,-83.13l-221.68 -2.31c-36.95,0 -28.74,-4.61 -36.95,25.4 0,16.17 -4.1,36.95 -8.21,53.12 0,16.16 -4.1,34.63 -4.1,53.11l-78 459.53c-4.11,16.16 -8.21,32.33 -8.21,50.8 -4.11,16.17 -8.21,34.64 -8.21,50.8z"/>
   <path class="fil1" d="M2438.95 2605.42l28.73 2.31c0,4.62 -20.52,120.08 -32.84,127 -12.32,11.55 -20.53,2.31 -24.63,25.4l-16.42 90.06c0,11.55 -4.11,34.64 -8.21,43.88 0,6.93 -12.32,34.64 -4.11,41.56 8.21,4.62 151.9,2.31 172.42,2.31 20.53,0 36.95,-18.47 53.37,-36.94 98.53,-96.99 61.58,-20.79 94.42,-180.12 4.11,-25.4 8.21,-50.8 12.32,-73.9l12.31 -80.82c4.11,-32.33 20.53,-108.53 24.63,-152.41 4.11,-23.09 -8.21,-16.16 -69.78,-16.16l-180.64 2.31c-20.52,0 -24.63,-2.31 -28.73,16.16 0,13.86 -4.11,25.4 -8.21,36.95 -4.11,30.02 -8.21,50.8 -12.32,76.2 -4.1,16.17 -12.31,66.97 -12.31,76.21z"/>
   <path class="fil1" d="M1404.42 2935.63l209.37 0c4.11,0 0,0 4.11,-2.31 4.1,-2.3 28.73,-140.86 28.73,-157.02 0,-18.47 8.21,-34.64 8.21,-50.8l20.53 -108.54 -24.63 -101.6c-4.11,-13.86 -12.32,-25.4 -16.42,-43.88l-24.63 -96.98c-4.11,-23.09 -8.21,-32.33 -16.42,-50.8 -16.43,-64.66 -32.85,-127.01 -49.27,-196.29 -12.31,2.31 -12.31,32.33 -12.31,43.88 -12.32,78.51 -32.85,182.43 -41.06,256.32 -4.1,23.09 -8.21,13.85 -12.31,48.49 0,27.71 -12.32,71.59 -16.42,99.3l-41.05 256.32c-4.11,25.4 -16.43,80.82 -16.43,103.91z"/>
   <path class="fil1" d="M3830.62 2210.54c8.21,6.93 262.74,2.31 270.95,2.31l205.26 0c86.21,0 65.69,11.55 78,-55.42 4.11,-25.4 28.74,-150.09 24.63,-166.26 -24.63,-4.62 -455.68,0 -525.47,-2.31 -12.31,0 -20.52,-2.31 -20.52,6.93l-16.43 87.75c0,16.16 -4.1,27.71 -4.1,43.87 -4.11,25.4 -8.21,20.79 -8.21,41.57 -4.11,18.47 -12.32,34.64 -4.11,41.56z"/>
   <path class="fil1" d="M2032.53 2794.77l32.84 -196.28c12.31,-71.58 28.74,-136.24 36.95,-205.52 0,-11.54 0,-13.85 4.1,-23.09l45.16 -274.8c4.1,-13.85 16.42,-92.36 16.42,-106.22l-209.37 0 -28.73 157.03c-4.11,16.16 -24.64,140.86 -24.64,157.02 0,16.17 4.11,36.95 8.21,53.11l36.95 147.79c4.11,16.17 8.21,34.64 12.32,48.5 4.1,16.16 8.21,30.02 12.31,46.18l36.95 150.1c12.32,27.71 4.11,39.25 20.53,46.18z"/>
   <path class="fil1" d="M2521.05 2187.45l24.63 11.55c0,27.71 -28.73,108.53 -20.52,117.77 8.21,4.62 217.57,2.31 246.31,0 8.21,-13.86 16.42,-94.68 24.63,-122.39l16.42 -80.82c0,-11.55 -4.1,-11.55 -8.21,-18.48l-90.31 -96.98c-8.21,-9.24 -8.21,-9.24 -24.63,-9.24l-135.48 0c-8.21,23.09 -16.42,90.06 -20.52,120.08 -4.11,23.09 -12.32,50.8 -12.32,78.51z"/>
   <path class="fil2" d="M1769.79 3348.98c-4.1,-16.16 4.11,-46.18 8.21,-60.04 4.11,-20.78 8.21,-39.26 12.32,-62.35 4.1,-11.54 8.21,-46.18 16.42,-53.11 12.31,-11.54 16.42,2.31 20.52,-16.16 4.11,-6.93 8.21,-23.1 8.21,-30.02l-69.78 0 -20.53 92.37c-4.11,23.09 -12.32,83.13 -20.53,96.98 -4.1,-4.62 -4.1,-4.62 -8.21,-11.54l-102.63 -180.12c-12.31,0 -57.47,-2.31 -61.58,2.31 -8.21,6.92 -8.21,25.4 -8.21,34.64l4.11 4.61c0,0 4.1,2.31 4.1,2.31 4.11,2.31 4.11,2.31 4.11,4.62 4.1,23.09 -20.53,115.46 -28.74,150.1 0,11.55 0,32.33 -24.63,34.64l-8.21 36.94c16.42,0 53.37,2.31 65.68,-2.3 4.11,-9.24 8.21,-34.64 12.32,-46.19 0,-20.78 24.63,-136.24 28.74,-143.17 12.31,4.62 102.63,187.05 110.84,191.66l65.68 0 8.21 -36.94 -12.31 -4.62c0,-2.31 -4.11,-2.31 -4.11,-4.62z"/>
   <path class="fil2" d="M3526.84 3282.01c16.42,-2.31 61.57,-4.61 69.78,9.24 12.32,23.09 -4.1,50.8 -20.52,60.04 -12.32,4.62 -20.53,4.62 -36.95,4.62 -45.16,0 -28.74,-2.31 -20.52,-43.88 0,-20.78 0,-13.85 8.21,-30.02zm8.21 -43.87c0,-18.47 8.21,-41.57 8.21,-60.04 4.1,-13.86 8.21,-11.55 24.63,-11.55 4.1,0 20.52,2.31 24.63,6.93 16.42,9.24 8.21,41.57 0,53.11 -12.32,13.86 -32.84,13.86 -57.47,11.55zm69.79 140.86c36.94,-20.78 49.26,-69.28 41.05,-101.6 -4.11,-16.17 -16.42,-18.48 -20.53,-25.41 0,-9.23 0,0 8.21,-11.54 16.42,-25.4 28.74,-76.21 -4.1,-101.61 -28.74,-18.47 -131.37,-13.85 -143.69,-11.54 0,6.92 -4.1,25.4 -4.1,34.64l8.21 4.61c0,0 0,0 0,2.31 8.21,6.93 8.21,9.24 8.21,18.48 -4.11,11.54 -4.11,20.78 -8.21,32.33 -4.11,23.09 -8.21,39.25 -12.32,62.34 -4.1,11.55 -12.31,57.73 -16.42,62.35 0,4.62 -4.1,6.93 -8.21,9.24 -4.1,2.31 -20.52,-4.62 -20.52,41.56 32.84,2.31 65.68,0 94.42,0 36.94,0 53.36,-2.3 78,-16.16z"/>
   <path class="fil2" d="M2414.31 3395.16c53.37,0 98.53,-13.85 119.06,-50.8 8.21,-18.47 16.42,-50.8 4.1,-71.58 -20.52,-48.5 -110.84,-25.4 -135.47,-34.64 -20.53,-9.24 -12.32,-41.57 4.1,-55.42 16.42,-18.48 73.9,-20.78 98.53,-6.93 16.42,9.24 8.21,13.86 12.32,32.33l57.47 0c4.1,-16.17 -4.11,-6.93 -4.11,-18.47 -4.1,-9.24 -4.1,-16.17 -4.1,-23.1 -24.63,-57.73 -156,-46.18 -192.95,-11.54 -41.05,39.25 -53.37,127 41.05,127 32.85,0 102.64,-9.23 73.9,48.5 -4.11,11.54 -12.32,13.85 -24.63,18.47 -20.53,4.62 -73.9,11.55 -90.32,-4.62 -12.31,-13.85 -4.1,-20.78 -4.1,-41.56l-57.48 2.31c0,18.47 4.11,2.3 8.21,18.47 0,16.16 -12.31,71.58 94.42,71.58z"/>
   <path class="fil3" d="M2147.47 3395.16c143.69,0 147.79,-110.84 110.85,-140.86 -36.95,-27.71 -106.74,-2.31 -127.27,-23.09 -16.42,-13.85 -12.31,-64.66 61.58,-64.66 32.84,0 36.95,4.62 57.47,16.17l0 25.4 57.48 0c0,-18.47 0,-6.93 -4.11,-13.86 -4.1,-11.54 0,-53.11 -53.37,-62.34 -69.78,-11.55 -168.31,0 -172.42,85.44 -4.1,73.89 65.69,64.65 114.95,64.65 53.37,0 53.37,71.59 -28.74,71.59 -86.21,0 -57.47,-27.71 -57.47,-48.49 -12.31,-2.31 -53.37,-2.31 -61.58,0 -4.1,18.47 0,2.3 4.11,16.16 4.1,9.24 -4.11,34.64 20.52,53.11 16.42,16.17 45.16,20.78 78,20.78z"/>
   <path class="fil3" d="M3214.84 3175.79c0,9.24 -4.11,34.64 -4.11,46.18 -12.31,48.5 -53.37,157.03 36.95,168.58 28.74,4.61 53.37,9.23 90.31,-2.31 53.37,-18.48 69.79,-55.42 82.11,-113.15 4.1,-27.71 12.32,-57.73 16.42,-85.44 4.11,-20.79 12.32,-16.17 24.63,-23.1 4.11,-4.61 0,2.31 4.11,-18.47 4.1,-11.55 4.1,-6.93 4.1,-20.78l-49.26 0c-20.53,0 -16.42,2.31 -20.53,18.47l-8.21 53.11c-8.21,27.71 -20.52,113.15 -36.94,131.63 -36.95,36.94 -110.85,30.02 -114.95,-9.24 -4.11,-23.09 4.1,-46.18 12.31,-66.97 4.11,-20.78 8.21,-46.18 12.32,-64.65 4.11,-20.79 12.32,-46.19 12.32,-64.66l-65.69 0c-4.1,4.62 -8.21,23.09 -8.21,30.02 -4.1,18.47 0,13.85 8.21,18.47l4.11 2.31z"/>
   <path class="fil4" d="M2048.95 3166.55c4.1,-27.71 8.21,-18.47 8.21,-39.25l-197.05 0c-4.11,13.85 -4.11,23.09 -8.21,34.64 0,2.3 4.1,2.3 4.1,2.3l12.32 9.24c4.1,13.86 -4.11,39.26 -8.21,50.8 -4.11,16.17 -4.11,32.33 -8.21,48.5 -4.11,13.85 -12.32,66.96 -20.53,76.2 -4.11,6.93 -16.42,4.62 -20.53,9.24l-4.1 18.47c0,6.93 0,11.55 -4.11,18.47l197.05 0c4.11,-6.92 8.22,-32.32 8.22,-41.56l-127.27 0c0,-16.17 4.11,-23.09 8.21,-36.95 0,-11.54 4.11,-27.71 8.21,-32.33 12.32,-9.23 82.11,0 102.63,-4.62 8.22,-2.3 12.32,-30.02 12.32,-34.63 0,-11.55 -90.31,-4.62 -106.74,-4.62 0,-23.09 8.21,-57.73 16.43,-73.9l127.26 0z"/>
   <path class="fil2" d="M2939.79 3298.18c-8.21,0 -32.85,0 -41.06,0 -12.31,2.31 -8.21,9.23 -16.42,20.78 -28.73,50.8 -94.42,36.95 -106.73,23.09 -16.42,-13.85 -12.32,-34.64 -8.21,-60.04 8.21,-41.56 12.31,-90.06 49.26,-106.22 16.42,-6.93 45.16,-9.24 69.79,-4.62 24.63,6.93 20.52,25.4 20.52,50.8 53.37,9.24 49.27,0 49.27,-30.02 0,-78.51 -119.06,-76.2 -168.32,-48.49 -24.63,13.86 -49.26,43.88 -53.37,73.9 -4.1,34.63 -16.42,78.51 -16.42,113.15 0,83.13 127.27,76.2 180.63,39.25 12.32,-11.54 36.95,-43.87 41.06,-71.58z"/>
   <path class="fil1" d="M1158.11 3166.55c0,-11.54 8.21,-27.71 4.1,-39.25l-197.05 0 -4.1 34.64c0,2.3 0,2.3 4.1,2.3 8.21,4.62 12.32,6.93 12.32,18.48l-16.42 80.82c-4.11,18.47 -8.21,36.95 -12.32,55.42 -4.1,11.55 -4.1,18.47 -8.21,25.4 -8.21,11.55 -12.31,6.93 -20.52,11.55l-8.22 39.25c8.22,0 73.9,2.31 86.22,-2.3l8.21 -34.64 -16.43 -9.24c0,-18.47 8.22,-55.42 16.43,-66.97l102.63 0c4.1,-16.16 8.21,-23.09 8.21,-41.56l-102.63 0c-4.11,-9.24 8.21,-64.66 12.31,-73.9l131.37 0z"/>
   <path class="fil3" d="M1515.27 3166.55c4.1,-6.92 8.21,-27.71 8.21,-39.25l-217.58 0c-4.11,11.54 -8.21,23.09 -8.21,39.25l86.21 0c0,9.24 -4.11,18.48 -4.11,27.71 -8.21,23.1 -8.21,36.95 -12.31,50.81l-16.42 73.89c-8.21,48.49 -16.42,23.09 -28.74,36.95 -4.11,4.62 -8.21,34.64 -8.21,39.25l86.21 0c4.1,-6.92 12.31,-30.02 12.31,-39.25 -4.1,-2.31 -12.31,-4.62 -16.42,-6.93 -4.1,-9.24 20.53,-122.39 24.64,-138.55 4.1,-20.78 4.1,-39.26 16.42,-41.57l78 -2.31z"/>
   <path class="fil3" d="M3034.21 3348.98c-4.11,-13.85 8.21,-64.66 12.31,-83.13l28.74 -138.55 -65.69 0c0,0 -8.21,36.94 -8.21,39.25 12.32,6.93 16.43,0 16.43,18.48l-28.74 136.24c-4.11,27.71 0,25.4 -24.63,34.64 -4.11,6.93 -12.32,30.02 -8.21,39.25l197.05 2.31c4.1,-6.92 12.31,-55.42 12.31,-64.65l-49.26 0c-8.21,16.16 -4.1,20.78 -28.74,23.09 -16.42,0 -36.94,0 -49.26,-2.31l-4.1 -4.62z"/>
   <path class="fil3" d="M1273.06 3166.55c0,-11.54 4.1,-25.4 4.1,-39.25l-86.21 0c-4.1,9.23 -4.1,25.4 -8.21,34.64 0,2.3 4.11,2.3 4.11,2.3 8.21,6.93 12.31,4.62 12.31,16.17l-28.73 138.55c-8.22,48.49 -12.32,25.4 -24.64,36.95 -4.1,4.62 -8.21,34.64 -8.21,39.25l82.11 0 12.31 -39.25c-8.21,-2.31 -12.31,-4.62 -16.42,-6.93 0,-23.09 12.32,-76.2 16.42,-99.3 4.11,-18.47 8.21,-34.63 12.32,-50.8 4.1,-20.78 4.1,-27.71 28.74,-32.33z"/>
  </g>
 </g>
</svg>
